# Blender v2.93.1 OBJ File: ''
# www.blender.org
o Cube.001
v 0.027188 0.059264 -0.027188
v -0.027188 0.059264 -0.027188
v -0.027188 0.059264 0.027188
v 0.027188 0.059264 0.027188
v 0.027188 -4.301268 0.027187
v -0.027188 -4.301268 0.027187
v -0.027188 -4.301268 -0.027189
v 0.027188 -4.301268 -0.027189
v -0.461364 -4.906287 0.461363
v -0.461364 -4.906287 -0.461365
v 0.461364 -4.906287 -0.461365
v 0.461364 -4.906287 0.461363
v 0.461364 -4.557008 -0.461365
v 0.461364 -4.557008 0.461363
v 0.146857 -4.233134 -0.146858
v 0.146857 -4.233134 0.146856
v -0.461364 -4.557008 0.461363
v -0.461364 -4.557008 -0.461365
v -0.146857 -4.233134 0.146856
v 0.081401 -4.233134 0.081400
v -0.081401 -4.233134 0.081400
v -0.146857 -4.233134 -0.146858
v 0.081401 -4.233134 -0.081402
v 0.081401 -4.183188 -0.081402
v 0.081401 -4.183188 0.081400
v -0.081401 -4.233134 -0.081402
v -0.081401 -4.183188 -0.081402
v -0.081401 -4.183188 0.081400
v -0.047126 -4.183188 0.047125
v -0.047126 -4.183188 -0.047127
v 0.047126 -4.183188 0.047125
v 0.047126 -4.168204 0.047125
v -0.047126 -4.168204 0.047125
v 0.047126 -4.183188 -0.047127
v 0.047126 -4.168204 -0.047127
v 0.052710 -4.168204 -0.052711
v 0.052710 -4.168204 0.052709
v -0.047126 -4.168204 -0.047127
v 0.052710 -4.147652 -0.052711
v 0.052710 -4.147652 0.052709
v -0.052710 -4.168204 0.052709
v -0.052710 -4.168204 -0.052711
v -0.052710 -4.147652 0.052709
v 0.041565 -4.147652 0.041564
v -0.041565 -4.147652 0.041564
v -0.052710 -4.147652 -0.052711
v 0.041565 -4.147652 -0.041566
v 0.041565 -4.136130 -0.041566
v 0.041565 -4.136130 0.041564
v -0.041565 -4.147652 -0.041566
v -0.041565 -4.136130 -0.041566
v -0.041565 -4.136130 0.041564
v -0.051394 -4.136130 0.051393
v -0.051394 -4.136130 -0.051395
v 0.051394 -4.136130 0.051393
v 0.051394 -4.116764 0.051393
v -0.051394 -4.116764 0.051393
v 0.051394 -4.136130 -0.051395
v 0.051394 -4.116764 -0.051395
v 0.042222 -4.116764 -0.042223
v 0.042222 -4.116764 0.042221
v -0.051394 -4.116764 -0.051395
v -0.042222 -4.116764 0.042221
v 0.042222 -4.090228 0.042221
v -0.042222 -4.090228 0.042221
v -0.042222 -4.116764 -0.042223
v 0.042222 -4.090228 -0.042223
v -0.042222 -4.090228 -0.042223
vn 0.0000 1.0000 0.0000
vn 0.0000 -0.0000 1.0000
vn -1.0000 0.0000 0.0000
vn 0.0000 -1.0000 0.0000
vn 1.0000 0.0000 0.0000
vn 0.0000 0.0000 -1.0000
vn 0.7174 0.6967 0.0000
vn -0.7174 0.6967 0.0000
vn 0.0000 0.6967 0.7174
vn 0.0000 0.6967 -0.7174
s 1
f 2//1 4//1 1//1
f 4//2 6//2 5//2
f 3//3 7//3 6//3
f 8//4 6//4 7//4
f 1//5 5//5 8//5
f 2//6 8//6 7//6
f 10//4 12//4 9//4
f 11//5 14//5 12//5
f 13//7 16//7 14//7
f 9//3 18//3 10//3
f 12//2 17//2 9//2
f 10//6 13//6 11//6
f 19//1 20//1 21//1
f 17//8 22//8 18//8
f 14//9 19//9 17//9
f 18//10 15//10 13//10
f 23//5 25//5 20//5
f 15//1 26//1 23//1
f 16//1 23//1 20//1
f 22//1 21//1 26//1
f 28//1 30//1 27//1
f 21//3 27//3 26//3
f 20//2 28//2 21//2
f 26//6 24//6 23//6
f 31//2 33//2 29//2
f 25//1 29//1 28//1
f 27//1 34//1 24//1
f 24//1 31//1 25//1
f 35//4 37//4 32//4
f 30//6 35//6 34//6
f 34//5 32//5 31//5
f 29//3 38//3 30//3
f 36//5 40//5 37//5
f 33//4 42//4 38//4
f 32//4 41//4 33//4
f 38//4 36//4 35//4
f 40//1 45//1 43//1
f 41//3 46//3 42//3
f 37//2 43//2 41//2
f 42//6 39//6 36//6
f 47//5 49//5 44//5
f 46//1 47//1 39//1
f 39//1 44//1 40//1
f 43//1 50//1 46//1
f 52//4 54//4 51//4
f 45//3 51//3 50//3
f 44//2 52//2 45//2
f 50//6 48//6 47//6
f 55//2 57//2 53//2
f 49//4 53//4 52//4
f 51//4 58//4 48//4
f 48//4 55//4 49//4
f 59//1 61//1 56//1
f 54//6 59//6 58//6
f 58//5 56//5 55//5
f 53//3 62//3 54//3
f 61//2 65//2 63//2
f 57//1 66//1 62//1
f 56//1 63//1 57//1
f 62//1 60//1 59//1
f 68//1 64//1 67//1
f 66//6 67//6 60//6
f 60//5 64//5 61//5
f 63//3 68//3 66//3
f 2//1 3//1 4//1
f 4//2 3//2 6//2
f 3//3 2//3 7//3
f 8//4 5//4 6//4
f 1//5 4//5 5//5
f 2//6 1//6 8//6
f 10//4 11//4 12//4
f 11//5 13//5 14//5
f 13//7 15//7 16//7
f 9//3 17//3 18//3
f 12//2 14//2 17//2
f 10//6 18//6 13//6
f 19//1 16//1 20//1
f 17//8 19//8 22//8
f 14//9 16//9 19//9
f 18//10 22//10 15//10
f 23//5 24//5 25//5
f 15//1 22//1 26//1
f 16//1 15//1 23//1
f 22//1 19//1 21//1
f 28//1 29//1 30//1
f 21//3 28//3 27//3
f 20//2 25//2 28//2
f 26//6 27//6 24//6
f 31//2 32//2 33//2
f 25//1 31//1 29//1
f 27//1 30//1 34//1
f 24//1 34//1 31//1
f 35//4 36//4 37//4
f 30//6 38//6 35//6
f 34//5 35//5 32//5
f 29//3 33//3 38//3
f 36//5 39//5 40//5
f 33//4 41//4 42//4
f 32//4 37//4 41//4
f 38//4 42//4 36//4
f 40//1 44//1 45//1
f 41//3 43//3 46//3
f 37//2 40//2 43//2
f 42//6 46//6 39//6
f 47//5 48//5 49//5
f 46//1 50//1 47//1
f 39//1 47//1 44//1
f 43//1 45//1 50//1
f 52//4 53//4 54//4
f 45//3 52//3 51//3
f 44//2 49//2 52//2
f 50//6 51//6 48//6
f 55//2 56//2 57//2
f 49//4 55//4 53//4
f 51//4 54//4 58//4
f 48//4 58//4 55//4
f 59//1 60//1 61//1
f 54//6 62//6 59//6
f 58//5 59//5 56//5
f 53//3 57//3 62//3
f 61//2 64//2 65//2
f 57//1 63//1 66//1
f 56//1 61//1 63//1
f 62//1 66//1 60//1
f 68//1 65//1 64//1
f 66//6 68//6 67//6
f 60//5 67//5 64//5
f 63//3 65//3 68//3
