v -1.000000 1.000000 -0.750000
v -1.000000 0.750000 -1.000000
v -1.000000 0.750000 -0.750000
v 0.750000 1.000000 -1.000000
v 1.000000 0.750000 -1.000000
v 0.750000 0.750000 -1.000000
v 1.000000 1.000000 0.750000
v 1.000000 0.750000 1.000000
v 1.000000 0.750000 0.750000
v -0.750000 1.000000 1.000000
v -1.000000 0.750000 1.000000
v -0.750000 0.750000 1.000000
v 1.000000 -1.000000 0.750000
v 0.750000 -1.000000 1.000000
v 0.750000 -1.000000 0.750000
v -1.000000 1.000000 0.750000
v -0.750000 1.000000 0.750000
v -0.750000 1.000000 -0.750000
v 1.000000 -0.750000 -0.750000
v 1.000000 -0.750000 -1.000000
v 0.750000 0.750000 0.950000
v -0.750000 -0.750000 0.950000
v 0.750000 -0.750000 0.950000
v -1.000000 -0.750000 0.750000
v -1.000000 -0.750000 1.000000
v 1.000000 -0.750000 0.750000
v 1.000000 -1.000000 -0.750000
v 0.750000 0.950000 0.750000
v -0.750000 0.950000 -0.750000
v -0.750000 0.950000 0.750000
v 0.950000 -0.750000 0.750000
v 0.950000 0.750000 -0.750000
v 0.950000 0.750000 0.750000
v 0.750000 -1.000000 -0.750000
v -0.750000 -0.950000 -0.750000
v -0.750000 -1.000000 -0.750000
v -0.950000 -0.750000 0.750000
v -1.000000 -0.750000 -0.750000
v 0.750000 1.000000 0.750000
v 1.000000 1.000000 1.000000
v 1.000000 0.750000 -0.750000
v 1.000000 1.000000 -0.750000
v 1.000000 1.000000 -1.000000
v -0.750000 0.750000 -1.000000
v -0.750000 1.000000 -1.000000
v 0.750000 -0.750000 -1.000000
v -0.750000 -0.750000 -0.950000
v 0.750000 -0.750000 -0.950000
v -1.000000 1.000000 -1.000000
v 0.750000 0.750000 1.000000
v -0.750000 -1.000000 0.750000
v -1.000000 -1.000000 1.000000
v -1.000000 -1.000000 0.750000
v -0.750000 -0.950000 0.750000
v -0.750000 -1.000000 -1.000000
v -1.000000 -1.000000 -0.750000
v -1.000000 -1.000000 -1.000000
v 1.000000 -1.000000 -1.000000
v 0.750000 -1.000000 -1.000000
v -0.750000 -0.750000 1.000000
v -0.750000 -1.000000 1.000000
v 0.750000 0.950000 -0.750000
v 0.750000 1.000000 -0.750000
v 1.000000 -0.750000 1.000000
v 1.000000 -1.000000 1.000000
v -0.750000 0.750000 0.950000
v 0.750000 0.750000 -0.950000
v 0.750000 -0.950000 -0.750000
v 0.750000 -0.950000 0.750000
v 0.950000 -0.750000 -0.750000
v -1.000000 -0.750000 -1.000000
v -0.950000 -0.750000 -0.750000
v 0.750000 1.000000 1.000000
v -0.950000 0.750000 0.750000
v -1.000000 0.750000 0.750000
v -1.000000 1.000000 1.000000
v -0.750000 -0.750000 -1.000000
v 0.750000 -0.750000 1.000000
v -0.750000 0.750000 -0.950000
v -0.950000 0.750000 -0.750000
vt 0.125000 1.000000
vt 0.000000 0.875000
vt 0.125000 0.875000
vt 0.125000 1.000000
vt 0.000000 0.875000
vt 0.125000 0.875000
vt 0.125000 1.000000
vt 0.000000 0.875000
vt 0.125000 0.875000
vt 0.125000 1.000000
vt 0.000000 0.875000
vt 0.125000 0.875000
vt 1.000000 0.875000
vt 0.875000 1.000000
vt 0.875000 0.875000
vt 0.000000 0.125000
vt 0.125000 0.000000
vt 0.125000 0.125000
vt 0.125000 0.875000
vt 1.000000 0.875000
vt 0.875000 0.125000
vt 1.000000 0.125000
vt 0.875000 0.875000
vt 0.125000 0.125000
vt 0.875000 0.125000
vt 1.000000 0.875000
vt 0.875000 0.125000
vt 1.000000 0.125000
vt 0.125000 0.125000
vt 0.875000 0.000000
vt 0.875000 0.125000
vt 0.125000 0.875000
vt 0.125000 0.125000
vt 0.125000 0.125000
vt 0.875000 0.875000
vt 0.125000 0.875000
vt 0.843750 0.156250
vt 0.156250 0.171875
vt 0.156250 0.156250
vt 0.171875 0.843750
vt 0.156250 0.156250
vt 0.156250 0.843750
vt 0.875000 0.125000
vt 1.000000 0.000000
vt 1.000000 0.125000
vt 0.875000 0.875000
vt 0.875000 1.000000
vt 0.875000 1.000000
vt 1.000000 0.875000
vt 1.000000 1.000000
vt 0.875000 0.875000
vt 0.875000 1.000000
vt 0.843750 0.156250
vt 0.156250 0.171875
vt 0.843750 0.171875
vt 0.000000 1.000000
vt 0.125000 1.000000
vt 0.843750 0.843750
vt 0.828125 0.156250
vt 0.843750 0.156250
vt 0.156250 0.843750
vt 0.843750 0.828125
vt 0.843750 0.843750
vt 0.125000 0.875000
vt 0.000000 1.000000
vt 0.000000 0.875000
vt 0.171875 0.843750
vt 0.156250 0.843750
vt 0.125000 0.000000
vt 0.000000 0.125000
vt 0.000000 0.000000
vt 1.000000 0.000000
vt 0.875000 0.125000
vt 0.875000 0.000000
vt 0.125000 0.125000
vt 0.000000 0.000000
vt 0.125000 0.000000
vt 0.156250 0.843750
vt 0.843750 0.828125
vt 0.843750 0.843750
vt 0.125000 1.000000
vt 1.000000 0.125000
vt 0.875000 0.000000
vt 1.000000 0.000000
vt 0.156250 0.828125
vt 1.000000 1.000000
vt 0.875000 0.875000
vt 1.000000 0.875000
vt 0.843750 0.828125
vt 0.156250 0.843750
vt 0.156250 0.828125
vt 0.000000 0.000000
vt 0.125000 0.000000
vt 0.843750 0.171875
vt 0.156250 0.156250
vt 0.156250 0.171875
vt 0.156250 0.843750
vt 0.171875 0.156250
vt 0.156250 0.156250
vt 0.156250 0.156250
vt 0.843750 0.171875
vt 0.843750 0.156250
vt 0.843750 0.843750
vt 0.828125 0.156250
vt 0.843750 0.156250
vt 0.125000 0.125000
vt 0.000000 0.000000
vt 0.125000 0.000000
vt 0.125000 0.125000
vt 1.000000 0.125000
vt 0.875000 0.000000
vt 1.000000 0.000000
vt 0.171875 0.156250
vt 0.156250 0.843750
vt 1.000000 1.000000
vt 1.000000 0.875000
vt 0.875000 0.000000
vt 0.828125 0.156250
vt 0.843750 0.156250
vt 0.125000 0.125000
vt 0.125000 0.000000
vt 0.875000 0.000000
vt 1.000000 0.000000
vt 0.171875 0.843750
vt 0.156250 0.156250
vt 0.156250 0.843750
vt 1.000000 1.000000
vt 0.875000 0.875000
vt 0.875000 0.875000
vt 0.000000 0.125000
vt 0.843750 0.843750
vt 0.828125 0.156250
vt 0.843750 0.156250
vt 0.843750 0.156250
vt 0.156250 0.156250
vt 0.000000 0.125000
vt 0.000000 0.125000
vt 0.000000 0.125000
vt 0.875000 1.000000
vt 0.875000 1.000000
vt 0.156250 0.156250
vt 0.843750 0.843750
vt 0.843750 0.828125
vt 0.875000 0.125000
vt 0.843750 0.843750
vt 0.843750 0.828125
vt 0.156250 0.843750
vt 0.843750 0.843750
vt 0.828125 0.156250
vt 0.843750 0.156250
vt 0.843750 0.156250
vt 0.156250 0.171875
vt 0.156250 0.156250
vt 0.875000 0.125000
vt 0.875000 0.875000
vt 0.125000 0.125000
vt 0.875000 0.125000
vt 0.125000 0.125000
vt 0.875000 0.875000
vt 0.125000 0.875000
vt 0.875000 0.875000
vt 0.125000 0.125000
vt 0.875000 0.125000
vt 1.000000 0.125000
vt 0.000000 1.000000
vt 0.000000 1.000000
vt 0.000000 1.000000
vt 1.000000 1.000000
vt 0.000000 0.000000
vt 0.000000 0.875000
vt 0.125000 0.875000
vt 0.875000 0.875000
vt 0.875000 0.125000
vt 0.843750 0.171875
vt 0.828125 0.843750
vt 0.156250 0.828125
vt 0.171875 0.156250
vt 0.156250 0.828125
vt 0.156250 0.843750
vt 0.843750 0.843750
vt 0.171875 0.843750
vt 0.156250 0.171875
vt 0.828125 0.843750
vt 0.171875 0.843750
vt 0.171875 0.156250
vt 0.828125 0.843750
vt 0.843750 0.171875
vt 0.171875 0.156250
vt 0.828125 0.843750
vt 0.156250 0.828125
vt 0.828125 0.843750
vt 0.125000 0.875000
vt 0.875000 0.125000
vt 0.125000 0.875000
vn -1.0000 0.0000 0.0000
vn 0.0000 0.0000 -1.0000
vn 1.0000 -0.0000 0.0000
vn 0.0000 0.0000 1.0000
vn 0.0000 -1.0000 -0.0000
vn 0.0000 1.0000 0.0000

f 1/1/1 2/2/1 3/3/1
f 4/4/2 5/5/2 6/6/2
f 7/7/3 8/8/3 9/9/3
f 10/10/4 11/11/4 12/12/4
f 13/13/5 14/14/5 15/15/5
f 16/16/6 10/17/6 17/18/6
f 18/19/6 16/16/6 17/18/6
f 5/20/3 19/21/3 20/22/3
f 21/23/4 22/24/4 23/25/4
f 11/26/1 24/27/1 25/28/1
f 26/29/3 27/30/3 19/21/3
f 28/31/6 29/32/6 30/33/6
f 31/34/3 32/35/3 33/36/3
f 34/37/4 35/38/4 36/39/4
f 37/40/6 38/41/6 24/42/6
f 39/43/6 40/44/6 7/45/6
f 7/7/3 41/46/3 42/47/3
f 4/48/6 42/49/6 43/50/6
f 4/4/2 44/51/2 45/52/2
f 46/53/6 47/54/6 48/55/6
f 49/56/6 18/19/6 45/57/6
f 9/58/5 32/59/5 41/60/5
f 12/61/5 21/62/5 50/63/5
f 51/64/5 52/65/5 53/66/5
f 36/39/3 54/67/3 51/68/3
f 55/69/5 56/70/5 57/71/5
f 58/72/5 34/73/5 59/74/5
f 60/75/4 52/76/4 61/77/4
f 18/78/4 62/79/4 63/80/4
f 15/15/5 61/81/5 51/64/5
f 64/82/4 14/83/4 65/84/4
f 23/85/1 50/63/1 21/62/1
f 40/86/4 50/87/4 8/88/4
f 66/89/3 60/90/3 22/91/3
f 26/29/3 65/92/3 13/93/3
f 20/22/3 27/30/3 58/72/3
f 67/94/1 46/95/1 48/96/1
f 43/50/3 41/46/3 5/20/3
f 15/97/1 68/98/1 34/99/1
f 51/100/2 69/101/2 15/102/2
f 41/103/4 70/104/4 19/105/4
f 46/106/2 58/107/2 59/108/2
f 59/74/5 36/109/5 55/69/5
f 71/110/2 55/111/2 57/112/2
f 72/113/4 3/114/4 38/41/4
f 49/115/2 44/51/2 2/116/2
f 17/18/6 73/117/6 39/43/6
f 31/118/2 9/58/2 26/119/2
f 38/120/1 57/71/1 56/121/1
f 51/64/5 56/70/5 36/109/5
f 25/28/1 53/122/1 52/123/1
f 74/124/2 24/125/2 75/126/2
f 76/127/1 75/128/1 11/26/1
f 39/43/6 42/49/6 63/129/6
f 9/9/3 64/130/3 26/29/3
f 17/131/3 29/132/3 18/133/3
f 44/134/3 47/54/3 77/135/3
f 6/6/2 20/136/2 46/106/2
f 12/12/4 25/137/4 60/75/4
f 3/3/1 71/138/1 38/120/1
f 38/120/1 53/122/1 24/27/1
f 1/1/1 75/128/1 16/139/1
f 10/10/4 50/87/4 73/140/4
f 45/57/6 63/129/6 4/48/6
f 3/141/5 74/124/5 75/126/5
f 22/91/6 78/142/6 23/143/6
f 60/75/4 14/83/4 78/144/4
f 70/104/6 26/145/6 19/105/6
f 28/146/2 17/147/2 39/148/2
f 8/88/4 78/144/4 64/82/4
f 62/149/1 39/148/1 63/150/1
f 6/151/5 79/152/5 44/153/5
f 2/116/2 77/154/2 71/110/2
f 79/155/2 48/156/2 47/157/2
f 72/158/1 74/159/1 80/160/1
f 69/161/5 35/162/5 68/163/5
f 27/164/5 15/15/5 34/73/5
f 59/108/2 77/154/2 46/106/2
f 1/1/1 49/56/1 2/2/1
f 4/4/2 43/165/2 5/5/2
f 7/7/3 40/166/3 8/8/3
f 10/10/4 76/167/4 11/11/4
f 13/13/5 65/168/5 14/14/5
f 16/16/6 76/169/6 10/17/6
f 18/19/6 1/170/6 16/16/6
f 5/20/3 41/46/3 19/21/3
f 21/23/4 66/171/4 22/24/4
f 11/26/1 75/128/1 24/27/1
f 26/29/3 13/93/3 27/30/3
f 28/31/6 62/172/6 29/32/6
f 31/34/3 70/173/3 32/35/3
f 34/37/4 68/174/4 35/38/4
f 37/40/6 72/113/6 38/41/6
f 39/43/6 73/117/6 40/44/6
f 7/7/3 9/9/3 41/46/3
f 4/48/6 63/129/6 42/49/6
f 4/4/2 6/6/2 44/51/2
f 46/53/6 77/135/6 47/54/6
f 49/56/6 1/170/6 18/19/6
f 9/58/5 33/175/5 32/59/5
f 12/61/5 66/176/5 21/62/5
f 51/64/5 61/81/5 52/65/5
f 36/39/3 35/177/3 54/67/3
f 55/69/5 36/109/5 56/70/5
f 58/72/5 27/164/5 34/73/5
f 60/75/4 25/137/4 52/76/4
f 18/78/4 29/178/4 62/79/4
f 15/15/5 14/14/5 61/81/5
f 64/82/4 78/144/4 14/83/4
f 23/85/1 78/179/1 50/63/1
f 40/86/4 73/140/4 50/87/4
f 66/89/3 12/180/3 60/90/3
f 26/29/3 64/130/3 65/92/3
f 20/22/3 19/21/3 27/30/3
f 67/94/1 6/151/1 46/95/1
f 43/50/3 42/47/3 41/46/3
f 15/97/1 69/181/1 68/98/1
f 51/100/2 54/182/2 69/101/2
f 41/103/4 32/183/4 70/104/4
f 46/106/2 20/136/2 58/107/2
f 59/74/5 34/73/5 36/109/5
f 71/110/2 77/154/2 55/111/2
f 72/113/4 80/184/4 3/114/4
f 49/115/2 45/52/2 44/51/2
f 17/18/6 10/17/6 73/117/6
f 31/118/2 33/175/2 9/58/2
f 38/120/1 71/138/1 57/71/1
f 51/64/5 53/66/5 56/70/5
f 25/28/1 24/27/1 53/122/1
f 74/124/2 37/185/2 24/125/2
f 76/127/1 16/139/1 75/128/1
f 39/43/6 7/45/6 42/49/6
f 9/9/3 8/8/3 64/130/3
f 17/131/3 30/186/3 29/132/3
f 44/134/3 79/187/3 47/54/3
f 6/6/2 5/5/2 20/136/2
f 12/12/4 11/11/4 25/137/4
f 3/3/1 2/2/1 71/138/1
f 38/120/1 56/121/1 53/122/1
f 1/1/1 3/3/1 75/128/1
f 10/10/4 12/12/4 50/87/4
f 45/57/6 18/19/6 63/129/6
f 3/141/5 80/188/5 74/124/5
f 22/91/6 60/90/6 78/142/6
f 60/75/4 61/77/4 14/83/4
f 70/104/6 31/189/6 26/145/6
f 28/146/2 30/190/2 17/147/2
f 8/88/4 50/87/4 78/144/4
f 62/149/1 28/191/1 39/148/1
f 6/151/5 67/94/5 79/152/5
f 2/116/2 44/51/2 77/154/2
f 79/155/2 67/192/2 48/156/2
f 72/158/1 37/193/1 74/159/1
f 69/161/5 54/194/5 35/162/5
f 27/164/5 13/13/5 15/15/5
f 59/108/2 55/111/2 77/154/2
